<svg width="94.322205" height="38.433838" viewBox="0 0 94.3222 38.4338" fill="none" xmlns="http://www.w3.org/2000/svg" xmlns:xlink="http://www.w3.org/1999/xlink">
	<desc>
			Created with Pixso.
	</desc>
	<defs/>
	<path id="Vector 2" d="M10.99 11.71L0.99 21.71L10.99 31.71" stroke="#000000" stroke-opacity="1.000000" stroke-width="2.000000" stroke-linejoin="round" stroke-linecap="round"/>
	<path id="Vector 3" d="M30.99 11.71L40.99 21.71L30.99 31.71" stroke="#000000" stroke-opacity="1.000000" stroke-width="2.000000" stroke-linejoin="round" stroke-linecap="round"/>
	<path id="Vector 4" d="M15.94 36.37L24.53 4.33C24.65 3.89 24.39 3.44 23.95 3.33C23.52 3.21 23.07 3.47 22.95 3.9L14.37 35.95C14.25 36.39 14.51 36.83 14.94 36.95C15.38 37.07 15.83 36.81 15.94 36.37Z" fill="#000000" fill-opacity="1.000000" fill-rule="evenodd"/>
	<path id="Rectangle 2" d="M22.95 3.9C23.07 3.47 23.52 3.21 23.95 3.33C24.39 3.44 24.65 3.89 24.53 4.33L23.48 8.23L21.91 7.81L22.95 3.9Z" fill="#D9D9D9" fill-opacity="1.000000" fill-rule="evenodd"/>
	<path id="Vector 5" d="M25.69 6.31L28.84 7.15" stroke="#000000" stroke-opacity="1.000000" stroke-width="1.000000" stroke-linecap="round"/>
	<path id="Vector 6" d="M17.8 4.19L20.96 5.04" stroke="#000000" stroke-opacity="1.000000" stroke-width="1.000000" stroke-linecap="round"/>
	<path id="Vector 7" d="M19.64 0.49L21.28 3.3" stroke="#000000" stroke-opacity="1.000000" stroke-width="1.000000" stroke-linecap="round"/>
	<path id="Vector 8" d="M17.58 8.18L20.4 6.57" stroke="#000000" stroke-opacity="1.000000" stroke-width="1.000000" stroke-linecap="round"/>
	<path id="Vector 9" d="M25.27 7.87L26.91 10.68" stroke="#000000" stroke-opacity="1.000000" stroke-width="1.000000" stroke-linecap="round"/>
	<path id="Vector 10" d="M26.14 4.61L28.97 2.99" stroke="#000000" stroke-opacity="1.000000" stroke-width="1.000000" stroke-linecap="round"/>
	<path id="Coding" d="M72.82 14.28L72.82 5.38L71.97 5.38L71.97 9.17Q71.7 8.76 71.33 8.48Q71.15 8.34 70.95 8.24Q70.91 8.22 70.86 8.2Q70.28 7.92 69.57 7.92Q68.87 7.92 68.27 8.17Q68.11 8.24 67.96 8.33Q67.65 8.5 67.4 8.73Q67.06 9.04 66.83 9.46Q66.8 9.51 66.78 9.56Q66.42 10.25 66.42 11.13Q66.42 11.98 66.76 12.67Q66.79 12.73 66.83 12.8Q67.06 13.2 67.38 13.51Q67.64 13.76 67.96 13.94Q68.12 14.03 68.29 14.1Q68.88 14.34 69.57 14.34Q70.3 14.34 70.9 14.06Q70.94 14.03 70.99 14.01Q71.22 13.89 71.41 13.72Q71.76 13.44 72 13.04L72 14.28L72.82 14.28ZM75.36 6.53Q75.48 6.59 75.63 6.59Q75.78 6.59 75.9 6.53Q75.99 6.49 76.07 6.41Q76.15 6.34 76.19 6.24Q76.25 6.12 76.25 5.97Q76.25 5.87 76.22 5.78Q76.18 5.66 76.07 5.56Q76 5.48 75.91 5.44Q75.78 5.38 75.63 5.38Q75.48 5.38 75.36 5.43Q75.26 5.48 75.18 5.56Q75.08 5.67 75.03 5.79Q75 5.88 75 5.98Q75 6.11 75.05 6.21Q75.09 6.32 75.18 6.41Q75.26 6.49 75.36 6.53ZM53.08 13.96Q53.96 14.36 55.01 14.36Q55.95 14.36 56.74 14.04Q57.36 13.79 57.83 13.38Q57.97 13.26 58.1 13.12L57.53 12.56Q57.17 12.93 56.74 13.16Q56 13.56 55.05 13.56Q54.3 13.56 53.66 13.31Q53.44 13.22 53.23 13.11Q52.77 12.85 52.42 12.48Q52.15 12.2 51.95 11.86Q51.84 11.67 51.76 11.46Q51.49 10.83 51.49 10.08Q51.49 9.34 51.76 8.71Q51.84 8.5 51.95 8.31Q52.16 7.95 52.44 7.67Q52.78 7.31 53.23 7.06Q53.45 6.94 53.67 6.85Q54.31 6.6 55.05 6.6Q55.97 6.6 56.7 6.98Q57.15 7.22 57.53 7.6L58.1 7.04Q57.93 6.85 57.74 6.7Q57.3 6.34 56.75 6.12Q55.96 5.81 55.02 5.81Q54 5.81 53.13 6.19Q52.94 6.27 52.77 6.36Q52.22 6.67 51.79 7.1Q51.45 7.45 51.19 7.89Q51.04 8.14 50.93 8.41Q50.62 9.18 50.62 10.08Q50.62 10.99 50.94 11.77Q51.05 12.03 51.19 12.27Q51.45 12.73 51.81 13.09Q52.22 13.51 52.76 13.81Q52.92 13.89 53.08 13.96ZM60.77 14.08Q61.38 14.34 62.11 14.34Q62.85 14.34 63.46 14.08Q63.61 14.01 63.76 13.93Q64.12 13.72 64.41 13.44Q64.7 13.15 64.9 12.78Q64.97 12.67 65.03 12.54Q65.32 11.9 65.32 11.13Q65.32 10.33 65.01 9.68Q64.96 9.58 64.9 9.47Q64.69 9.1 64.4 8.81Q64.12 8.53 63.76 8.33Q63.62 8.26 63.48 8.19Q62.86 7.92 62.11 7.92Q61.37 7.92 60.75 8.19Q60.61 8.26 60.47 8.33Q60.13 8.52 59.85 8.79Q59.54 9.08 59.32 9.47Q59.25 9.58 59.2 9.7Q58.9 10.34 58.9 11.13Q58.9 11.89 59.19 12.53Q59.25 12.66 59.32 12.78Q59.54 13.16 59.84 13.46Q60.12 13.73 60.47 13.93Q60.61 14.01 60.77 14.08ZM83.25 8.38Q82.6 7.92 81.64 7.92Q80.82 7.92 80.21 8.24Q79.84 8.43 79.56 8.71Q79.38 8.9 79.24 9.14L79.24 7.97L78.42 7.97L78.42 14.28L79.27 14.28L79.27 10.97Q79.27 10.04 79.73 9.46Q79.79 9.38 79.87 9.3Q79.99 9.17 80.14 9.07Q80.68 8.69 81.48 8.69Q82.27 8.69 82.74 9.07Q82.82 9.14 82.89 9.21Q82.89 9.21 82.89 9.21Q83.38 9.73 83.38 10.71L83.38 14.28L84.23 14.28L84.23 10.62Q84.23 9.39 83.62 8.71Q83.57 8.66 83.53 8.61Q83.4 8.48 83.25 8.38ZM92.41 13.52L92.41 7.97L91.6 7.97L91.6 9.18Q91.4 8.87 91.12 8.63Q90.87 8.4 90.55 8.25Q90.53 8.24 90.5 8.22Q89.87 7.92 89.1 7.92Q88.3 7.92 87.63 8.23Q87.56 8.27 87.48 8.31Q87.11 8.51 86.82 8.79Q86.55 9.05 86.35 9.39Q86.28 9.5 86.22 9.62Q85.93 10.23 85.93 10.97Q85.93 11.68 86.2 12.28Q86.26 12.42 86.35 12.56Q86.54 12.88 86.79 13.14Q87.1 13.44 87.49 13.65Q87.63 13.73 87.78 13.79Q88.39 14.04 89.1 14.04Q89.83 14.04 90.43 13.77Q90.48 13.75 90.52 13.73Q90.83 13.58 91.08 13.37Q91.35 13.13 91.56 12.82L91.56 13.62Q91.56 14.8 91 15.36Q90.43 15.92 89.24 15.92Q88.62 15.92 88.05 15.75Q87.96 15.72 87.86 15.69Q87.21 15.46 86.75 15.05L86.32 15.7Q86.81 16.16 87.59 16.41Q88.38 16.67 89.26 16.67Q90.84 16.67 91.63 15.9Q92.41 15.12 92.41 13.52ZM76.05 7.97L75.2 7.97L75.2 14.28L76.05 14.28L76.05 7.97ZM63.15 13.37Q62.68 13.59 62.11 13.59Q61.57 13.59 61.11 13.38Q61.01 13.34 60.91 13.28Q60.72 13.17 60.56 13.03Q60.26 12.78 60.07 12.41Q60.05 12.39 60.04 12.37Q59.76 11.82 59.76 11.13Q59.76 10.43 60.05 9.88Q60.06 9.86 60.07 9.85Q60.27 9.47 60.57 9.22Q60.72 9.08 60.91 8.98Q61.01 8.91 61.13 8.87Q61.58 8.67 62.11 8.67Q62.67 8.67 63.13 8.88Q63.23 8.92 63.32 8.98Q63.52 9.09 63.68 9.24Q63.97 9.49 64.15 9.85Q64.16 9.86 64.16 9.87Q64.46 10.42 64.46 11.13Q64.46 11.83 64.17 12.38Q64.16 12.4 64.15 12.41Q63.97 12.76 63.7 13.01Q63.53 13.17 63.32 13.28Q63.24 13.33 63.15 13.37ZM70.57 13.41Q70.14 13.59 69.64 13.59Q69.09 13.59 68.64 13.38Q68.53 13.34 68.43 13.28Q68.24 13.17 68.08 13.03Q67.79 12.78 67.59 12.41Q67.58 12.39 67.57 12.37Q67.29 11.82 67.29 11.13Q67.29 10.43 67.57 9.88Q67.58 9.86 67.59 9.85Q67.79 9.47 68.09 9.22Q68.25 9.08 68.43 8.98Q68.54 8.91 68.65 8.87Q69.1 8.67 69.64 8.67Q70.13 8.67 70.56 8.84Q70.7 8.9 70.83 8.98Q71.03 9.09 71.19 9.23Q71.48 9.49 71.67 9.85Q71.69 9.87 71.7 9.9Q71.98 10.44 71.98 11.13Q71.98 11.81 71.71 12.35Q71.69 12.38 71.67 12.41Q71.48 12.76 71.2 13.01Q71.03 13.17 70.83 13.28Q70.71 13.35 70.57 13.41ZM90.3 13.06Q89.79 13.29 89.19 13.29Q88.58 13.29 88.08 13.06Q88.02 13.03 87.96 12.99Q87.65 12.83 87.42 12.6Q87.24 12.41 87.1 12.17Q87.06 12.09 87.02 12.01Q86.8 11.54 86.8 10.97Q86.8 10.39 87.03 9.92Q87.06 9.84 87.1 9.77Q87.25 9.52 87.44 9.33Q87.67 9.11 87.96 8.96Q88.01 8.93 88.07 8.9Q88.57 8.67 89.19 8.67Q89.85 8.67 90.38 8.94Q90.41 8.95 90.43 8.96Q90.75 9.14 90.99 9.39Q91.16 9.57 91.28 9.78Q91.32 9.84 91.35 9.91Q91.59 10.39 91.59 10.97Q91.59 11.53 91.37 11.99Q91.33 12.08 91.28 12.17Q91.16 12.38 91 12.56Q90.75 12.82 90.42 12.99Q90.36 13.03 90.3 13.06Z" fill="#000000" fill-opacity="1.000000" fill-rule="evenodd"/>
	<path id="Magic" d="M77.39 23.62Q77.7 23.11 77.95 22.74Q77.83 23.14 77.71 23.6Q77.59 24.06 77.51 24.56Q77.42 25.05 77.37 25.57Q77.31 26.09 77.31 26.62Q77.31 27.06 77.35 27.49Q77.39 27.92 77.48 28.31Q77.58 28.71 77.73 29.06Q77.89 29.41 78.12 29.68Q78.17 29.74 78.23 29.8Q78.43 30 78.68 30.14Q79 30.32 79.42 30.38Q79.52 30.4 79.61 30.4Q79.65 30.4 79.68 30.39Q79.73 30.37 79.76 30.34Q79.81 30.29 79.82 30.24Q79.83 30.22 79.83 30.19Q79.83 30.17 79.82 30.15Q79.81 30.09 79.77 30.03Q79.75 30 79.71 29.98Q79.67 29.96 79.62 29.96Q79.25 29.94 78.96 29.8Q78.8 29.71 78.66 29.6Q78.56 29.51 78.47 29.41Q78.27 29.17 78.13 28.85Q77.99 28.53 77.91 28.17Q77.82 27.81 77.79 27.41Q77.75 27.02 77.75 26.63Q77.75 26.39 77.76 26.14Q77.78 25.9 77.79 25.68Q77.83 25.19 77.93 24.7Q78.02 24.21 78.13 23.77Q78.25 23.32 78.37 22.93Q78.5 22.54 78.6 22.25Q78.7 21.96 78.77 21.79Q78.84 21.62 78.84 21.62Q78.85 21.58 78.85 21.54Q78.85 21.5 78.84 21.46Q78.83 21.42 78.79 21.38Q78.77 21.36 78.74 21.34Q78.69 21.31 78.63 21.31Q78.58 21.31 78.54 21.33Q78.5 21.35 78.47 21.38Q78.46 21.39 78.3 21.58Q78.14 21.76 77.86 22.15Q77.58 22.54 77.19 23.13Q76.8 23.73 76.34 24.56Q76.01 25.14 75.7 25.8Q75.39 26.46 75.1 27.1Q74.82 27.73 74.59 28.3Q74.37 28.87 74.21 29.26Q74.13 28.92 74.03 28.49Q73.93 28.06 73.83 27.59Q73.72 27.13 73.61 26.63Q73.5 26.14 73.39 25.67Q73.29 25.2 73.19 24.76Q73.09 24.32 73.01 23.96Q73.12 23.52 73.17 23.15Q73.22 22.78 73.22 22.5Q73.22 22.24 73.18 22.09Q73.14 21.93 73.08 21.85Q73.02 21.78 72.95 21.75Q72.87 21.73 72.81 21.73Q72.74 21.73 72.67 21.75Q72.59 21.77 72.53 21.85Q72.46 21.93 72.42 22.08Q72.38 22.23 72.38 22.49Q72.38 22.73 72.42 23.09Q72.47 23.46 72.57 23.97Q72.45 24.33 72.34 24.68Q72.23 25.03 72.11 25.34Q71.72 26.35 71.34 27.1Q70.96 27.84 70.56 28.37Q70.17 28.89 69.77 29.22Q69.37 29.55 68.96 29.74Q68.55 29.93 68.12 29.99Q67.7 30.06 67.25 30.06Q66.99 30.06 66.69 30.01Q66.4 29.95 66.1 29.84Q65.81 29.72 65.54 29.55Q65.35 29.42 65.18 29.26Q65.12 29.19 65.07 29.13Q65.04 29.1 65.02 29.07Q64.85 28.85 64.74 28.58Q64.62 28.28 64.62 27.91Q64.62 27.62 64.71 27.37Q64.74 27.29 64.78 27.22Q64.85 27.08 64.94 26.96Q65.06 26.81 65.21 26.68Q65.48 26.45 65.85 26.33Q66.22 26.2 66.63 26.2Q67.08 26.2 67.39 26.3Q67.7 26.4 67.9 26.52Q68.1 26.64 68.19 26.75Q68.28 26.85 68.28 26.86Q68.32 26.91 68.37 26.94Q68.42 26.96 68.47 26.96Q68.53 26.96 68.58 26.93Q68.61 26.91 68.63 26.89Q68.68 26.83 68.69 26.77Q68.69 26.75 68.69 26.73Q68.69 26.67 68.66 26.61Q68.65 26.61 68.61 26.54Q68.56 26.48 68.45 26.38Q68.35 26.29 68.19 26.18Q68.03 26.06 67.81 25.97Q67.59 25.88 67.3 25.82Q67.01 25.75 66.64 25.75Q66.19 25.75 65.79 25.88Q65.74 25.9 65.7 25.91Q65.25 26.07 64.91 26.35Q64.74 26.5 64.6 26.67Q64.47 26.84 64.37 27.03Q64.33 27.11 64.3 27.18Q64.17 27.52 64.17 27.9Q64.17 28.36 64.31 28.72Q64.44 29.05 64.64 29.31Q64.66 29.34 64.69 29.38Q64.82 29.54 64.97 29.67Q65.1 29.78 65.24 29.88Q65.55 30.09 65.89 30.23Q65.89 30.23 65.89 30.23Q66.23 30.37 66.58 30.44Q66.92 30.51 67.23 30.51Q67.82 30.51 68.35 30.39Q68.53 30.36 68.7 30.3Q69.04 30.2 69.37 30.02Q69.85 29.76 70.29 29.33Q70.73 28.91 71.15 28.28Q71.57 27.65 71.96 26.79Q72.36 25.94 72.75 24.83Q72.87 25.37 73 25.96Q73.14 26.55 73.27 27.13Q73.4 27.71 73.52 28.24Q73.64 28.77 73.73 29.17Q73.83 29.58 73.88 29.82Q73.94 30.07 73.94 30.07Q73.95 30.11 73.97 30.15Q73.99 30.18 74.01 30.2Q74.04 30.22 74.08 30.24Q74.11 30.25 74.15 30.25Q74.22 30.25 74.27 30.22Q74.33 30.18 74.36 30.1Q74.36 30.1 74.45 29.85Q74.55 29.6 74.71 29.19Q74.88 28.77 75.1 28.23Q75.32 27.69 75.58 27.1Q75.85 26.51 76.14 25.91Q76.43 25.31 76.73 24.78Q77.08 24.14 77.39 23.62ZM88.85 25.9Q88.9 25.8 88.9 25.68Q88.9 25.59 88.87 25.5Q88.86 25.49 88.86 25.48Q88.83 25.42 88.8 25.37Q88.77 25.34 88.74 25.31Q88.71 25.28 88.68 25.25Q88.63 25.22 88.57 25.19Q88.56 25.19 88.54 25.18Q88.46 25.15 88.36 25.15Q88.27 25.15 88.18 25.18Q88.17 25.19 88.16 25.19Q88.1 25.22 88.05 25.25Q88.02 25.28 87.99 25.31Q87.96 25.34 87.93 25.37Q87.9 25.42 87.87 25.48Q87.87 25.49 87.86 25.5Q87.83 25.59 87.83 25.68Q87.83 25.8 87.87 25.9Q87.91 25.99 87.99 26.06Q88.06 26.14 88.15 26.17Q88.25 26.22 88.36 26.22Q88.48 26.22 88.58 26.17Q88.67 26.14 88.74 26.06Q88.82 25.99 88.85 25.9ZM88.56 25.62Q88.57 25.65 88.57 25.68Q88.57 25.72 88.56 25.75Q88.54 25.79 88.51 25.82Q88.47 25.86 88.43 25.87Q88.4 25.88 88.36 25.88Q88.32 25.88 88.29 25.87Q88.25 25.85 88.22 25.82Q88.19 25.79 88.18 25.76Q88.16 25.72 88.16 25.68Q88.16 25.65 88.18 25.62Q88.19 25.58 88.22 25.54Q88.26 25.51 88.3 25.49Q88.33 25.48 88.36 25.48Q88.4 25.48 88.43 25.49Q88.47 25.5 88.51 25.54Q88.54 25.58 88.56 25.62ZM87.96 29.39Q87.81 29.66 87.61 29.96Q87.14 30.68 86.41 31.58Q86.41 31.95 86.42 32.32Q86.42 32.69 86.42 33.13Q86.42 33.57 86.4 34Q86.38 34.43 86.33 34.82Q86.28 35.21 86.19 35.54Q86.1 35.87 85.95 36.12Q85.81 36.36 85.61 36.5Q85.57 36.52 85.54 36.54Q85.36 36.64 85.13 36.64Q84.9 36.64 84.73 36.53Q84.61 36.46 84.53 36.34Q84.32 36.04 84.32 35.49Q84.32 35.19 84.37 34.85Q84.43 34.51 84.53 34.14Q84.64 33.78 84.79 33.41Q84.94 33.04 85.12 32.69Q85.3 32.33 85.51 32.01Q85.73 31.69 85.97 31.43Q85.97 31.02 85.98 30.61Q85.98 30.21 85.99 29.87Q85.87 30.02 85.72 30.13Q85.65 30.18 85.57 30.22Q85.33 30.35 85.09 30.35Q84.88 30.35 84.72 30.27Q84.64 30.23 84.57 30.18Q84.49 30.12 84.43 30.05Q84.32 29.9 84.25 29.71Q84.22 29.61 84.2 29.51Q84.17 29.55 84.15 29.59Q84.02 29.77 83.87 29.92Q83.84 29.95 83.81 29.98Q83.62 30.15 83.4 30.27Q83.27 30.34 83.14 30.36Q83.04 30.38 82.94 30.38Q82.73 30.38 82.56 30.3Q82.46 30.25 82.37 30.17Q82.33 30.13 82.29 30.09Q82.12 29.89 82.04 29.62Q81.84 29.96 81.56 30.15Q81.29 30.35 81.01 30.35Q80.79 30.35 80.62 30.27Q80.51 30.22 80.43 30.15Q80.37 30.1 80.32 30.05Q80.2 29.9 80.13 29.71Q80.06 29.52 80.06 29.29Q80.06 28.83 80.22 28.48Q80.37 28.13 80.61 27.9Q80.84 27.67 81.12 27.56Q81.13 27.55 81.14 27.55Q81.43 27.43 81.7 27.43Q81.88 27.43 82.04 27.48Q82.19 27.53 82.3 27.59Q82.41 27.65 82.46 27.7Q82.52 27.75 82.53 27.75Q82.59 27.82 82.59 27.89Q82.59 27.9 82.59 27.91Q82.59 27.95 82.58 27.98Q82.57 28.03 82.53 28.07Q82.49 28.11 82.44 28.12Q82.41 28.13 82.38 28.13Q82.32 28.13 82.28 28.11Q82.25 28.1 82.22 28.07Q82.21 28.06 82.16 28.02Q82.12 27.99 82.05 27.96Q81.98 27.92 81.89 27.9Q81.79 27.87 81.67 27.87Q81.49 27.87 81.28 27.95Q81.08 28.03 80.91 28.21Q80.74 28.38 80.62 28.64Q80.51 28.9 80.51 29.26Q80.51 29.37 80.53 29.48Q80.55 29.59 80.6 29.68Q80.61 29.68 80.61 29.69Q80.63 29.72 80.65 29.75Q80.7 29.8 80.77 29.84Q80.87 29.9 81.02 29.9Q81.12 29.9 81.26 29.83Q81.4 29.76 81.52 29.62Q81.65 29.47 81.75 29.25Q81.85 29.02 81.9 28.72Q81.9 28.68 81.92 28.65Q81.94 28.61 81.97 28.58Q82 28.56 82.03 28.54Q82.07 28.53 82.12 28.53Q82.15 28.53 82.18 28.53Q82.23 28.55 82.27 28.59Q82.31 28.63 82.33 28.68Q82.33 28.71 82.33 28.74Q82.34 28.85 82.36 29.05Q82.38 29.25 82.44 29.45Q82.5 29.65 82.62 29.8Q82.66 29.85 82.71 29.88Q82.82 29.94 82.96 29.94Q82.97 29.94 82.98 29.94Q83.11 29.94 83.24 29.87Q83.38 29.79 83.51 29.67Q83.64 29.54 83.76 29.38Q83.88 29.22 83.98 29.05Q84.08 28.89 84.16 28.74Q84.23 28.58 84.29 28.47Q84.31 28.43 84.34 28.4Q84.36 28.38 84.37 28.37Q84.39 28.36 84.4 28.36Q84.54 28.09 84.74 27.9Q84.97 27.67 85.24 27.56Q85.25 27.55 85.27 27.55Q85.56 27.43 85.83 27.43Q86.01 27.43 86.16 27.48Q86.31 27.52 86.42 27.58Q86.53 27.64 86.59 27.69Q86.65 27.75 86.65 27.75Q86.7 27.8 86.71 27.85Q86.72 27.88 86.72 27.91Q86.72 27.95 86.71 27.98Q86.69 28.03 86.65 28.07Q86.61 28.11 86.57 28.12Q86.54 28.13 86.5 28.13Q86.49 28.13 86.48 28.13Q86.41 28.13 86.34 28.07Q86.32 28.05 86.28 28.02Q86.24 27.99 86.18 27.95Q86.12 27.92 86.04 27.89Q85.95 27.87 85.83 27.87Q85.66 27.87 85.45 27.95Q85.24 28.03 85.05 28.2Q84.87 28.37 84.75 28.63Q84.63 28.9 84.63 29.28Q84.63 29.56 84.75 29.73Q84.78 29.78 84.83 29.81Q84.94 29.9 85.13 29.9Q85.25 29.9 85.39 29.83Q85.53 29.76 85.66 29.62Q85.79 29.47 85.88 29.25Q85.98 29.02 86.02 28.72Q86.03 28.68 86.04 28.65Q86.06 28.61 86.1 28.58Q86.12 28.56 86.16 28.54Q86.2 28.53 86.25 28.53Q86.31 28.53 86.36 28.55Q86.38 28.57 86.4 28.6Q86.43 28.63 86.45 28.68Q86.46 28.71 86.46 28.75Q86.46 28.76 86.45 28.93Q86.45 29.11 86.44 29.39Q86.44 29.68 86.43 30.06Q86.42 30.44 86.41 30.86Q87.51 29.42 87.94 28.47Q87.95 28.45 87.97 28.43Q87.97 28.4 87.97 28.37Q87.99 27.9 88.05 27.44Q88.06 27.4 88.07 27.38Q88.09 27.33 88.13 27.29Q88.14 27.28 88.16 27.26Q88.22 27.23 88.29 27.23Q88.33 27.23 88.37 27.25Q88.4 27.26 88.43 27.3Q88.47 27.33 88.48 27.38Q88.49 27.41 88.49 27.45Q88.49 27.49 88.48 27.66Q88.46 27.84 88.44 28.08Q88.42 28.33 88.41 28.6Q88.39 28.87 88.39 29.1Q88.39 29.41 88.45 29.6Q88.52 29.79 88.61 29.9Q88.71 30 88.82 30.04Q88.93 30.07 89.03 30.07Q89.19 30.07 89.37 29.96Q89.54 29.84 89.73 29.63Q89.91 29.42 90.1 29.12Q90.29 28.82 90.47 28.46Q90.49 28.42 90.52 28.39Q90.53 28.38 90.54 28.37Q90.56 28.32 90.57 28.28Q90.67 27.97 90.85 27.74Q91.02 27.51 91.25 27.38Q91.38 27.3 91.52 27.27Q91.63 27.25 91.73 27.25Q91.93 27.25 92.08 27.32Q92.24 27.38 92.35 27.49Q92.45 27.59 92.51 27.71Q92.52 27.73 92.52 27.74Q92.58 27.88 92.58 28.01Q92.58 28.14 92.55 28.25Q92.52 28.36 92.47 28.45Q92.42 28.53 92.35 28.58Q92.29 28.63 92.23 28.63Q92.16 28.63 92.11 28.6Q92.08 28.59 92.06 28.57Q92.04 28.54 92.02 28.51Q92 28.46 92 28.41Q92 28.36 92.02 28.33L92.02 28.33Q92.04 28.29 92.07 28.25Q92.1 28.22 92.12 28.16Q92.14 28.1 92.14 28.02Q92.14 27.99 92.13 27.96Q92.11 27.87 92.02 27.79Q92 27.77 91.97 27.76Q91.87 27.69 91.73 27.69Q91.69 27.69 91.66 27.7Q91.53 27.72 91.42 27.79Q91.27 27.89 91.16 28.06Q91.05 28.23 90.98 28.45Q90.91 28.68 90.91 28.93Q90.91 29.17 90.97 29.39Q91.03 29.6 91.15 29.77Q91.2 29.85 91.28 29.92Q91.35 29.99 91.44 30.04Q91.62 30.14 91.87 30.14Q92.18 30.14 92.44 30.03Q92.45 30.03 92.45 30.02Q92.71 29.92 92.92 29.75Q92.93 29.74 92.95 29.73Q93.17 29.56 93.34 29.35Q93.51 29.14 93.63 28.96Q93.75 28.77 93.82 28.63Q93.88 28.5 93.9 28.46Q93.91 28.43 93.92 28.41Q93.94 28.39 93.97 28.37Q94 28.35 94.03 28.35Q94.06 28.34 94.09 28.34Q94.15 28.34 94.2 28.36Q94.23 28.38 94.26 28.41Q94.29 28.45 94.31 28.5Q94.32 28.53 94.32 28.57Q94.32 28.6 94.29 28.66Q94.26 28.73 94.17 28.89Q94.09 29.06 93.95 29.28Q93.8 29.49 93.6 29.72Q93.4 29.95 93.15 30.14Q92.89 30.33 92.57 30.45Q92.25 30.58 91.87 30.58Q91.54 30.58 91.28 30.46Q91.16 30.4 91.05 30.32Q90.94 30.23 90.84 30.12Q90.66 29.9 90.57 29.6Q90.52 29.46 90.5 29.3Q90.47 29.34 90.44 29.39Q90.31 29.59 90.15 29.79Q89.99 30 89.81 30.16Q89.62 30.32 89.42 30.42Q89.25 30.51 89.07 30.52Q89.05 30.52 89.02 30.52Q88.76 30.52 88.56 30.41Q88.48 30.36 88.41 30.31Q88.3 30.22 88.22 30.11Q88.08 29.92 88.02 29.67Q87.98 29.53 87.96 29.39ZM85.47 32.97Q85.69 32.52 85.97 32.14Q85.98 32.4 85.98 32.66L85.98 33.16Q85.98 33.44 85.97 33.78Q85.96 34.11 85.93 34.45Q85.9 34.78 85.84 35.1Q85.78 35.42 85.69 35.66Q85.59 35.9 85.46 36.05Q85.37 36.14 85.27 36.18Q85.21 36.2 85.14 36.2Q85.08 36.2 85.02 36.17Q84.95 36.15 84.89 36.08Q84.84 36.01 84.8 35.88Q84.76 35.75 84.76 35.53Q84.76 35.19 84.85 34.76Q84.93 34.33 85.09 33.88Q85.25 33.42 85.47 32.97Z" fill="#000000" fill-opacity="1.000000" fill-rule="evenodd"/>
</svg>
